<?xml version="1.0" encoding="UTF-8"?>
<svg id="uuid-1031c088-f5b4-41cd-bcb8-0f0b44c971cf" data-name="图层 1" xmlns="http://www.w3.org/2000/svg" viewBox="0 0 375.88 52.19">
  <path d="m9.92,35.68h15.56v5.34H1.91v-4.53l15.75-24.53H3.05v-5.3h22.47v4.34l-15.6,24.67Z"/>
  <path d="m52.29,41.03v-14.41h-14.74v14.41h-6.06V6.67h6.06v14.03h14.74V6.67h6.11v34.35h-6.11Z"/>
  <path d="m66.5,41.03V6.67h6.06v34.35h-6.06Z"/>
  <path d="m93.84,27.05v13.98h-6.54v-13.84l-10.5-20.52h6.92l6.97,14.46,7.11-14.46h6.63l-10.59,20.37Z"/>
  <path d="m133.3,29.29c0,8.16-4.44,12.31-12.6,12.31s-12.6-4.15-12.6-12.36V6.67h6.06v22.62c0,4.68,2,6.58,6.54,6.58s6.54-1.91,6.54-6.58V6.67h6.06v22.62Z"/>
  <path d="m161.06,41.03l-2.53-8.11h-12.5l-2.48,8.11h-6.49l11.83-34.35h7.06l11.59,34.35h-6.49Zm-8.73-28.53l-4.72,15.13h9.4l-4.68-15.13Z"/>
  <path d="m192.41,41.03l-14.46-24.05v24.05h-6.06V6.67h6.25l14.08,23.33-.05-23.33h6.06v34.35h-5.82Z"/>
  <path d="m212.39,28.62v12.41h-6.06V6.67h12.07c8.11,0,12.17,4.1,12.17,10.88,0,7.4-4.29,11.07-12.45,11.07h-5.73Zm0-16.46v11.02h5.77c4.29,0,6.06-1.67,6.06-5.53s-1.91-5.49-6.06-5.49h-5.77Z"/>
  <path d="m256.29,41.03l-2.53-8.11h-12.5l-2.48,8.11h-6.49l11.83-34.35h7.06l11.59,34.35h-6.49Zm-8.73-28.53l-4.72,15.13h9.4l-4.68-15.13Z"/>
  <path d="m267.11,41.03V6.67h6.06v28.58h14.98v5.77h-21.04Z"/>
  <path d="m313.63,41.03l-2.53-8.11h-12.5l-2.48,8.11h-6.49l11.83-34.35h7.06l11.59,34.35h-6.49Zm-8.73-28.53l-4.72,15.13h9.4l-4.68-15.13Z"/>
  <path d="m346.6,37.16c-2.48,3.05-6.01,4.44-10.45,4.44-6.87,0-12.02-4.15-12.6-10.5-.38-4.1-.33-9.26-.14-13.17.33-7.59,5.3-11.83,12.74-11.83,4.29,0,7.3,1.24,10.02,4.01l-3.63,4.77c-1.53-2.29-3.77-3.1-6.39-3.1-3.77.14-6.11,1.81-6.39,6.73-.14,2.72-.24,8.16.14,11.69.48,4.48,3.01,5.68,6.25,5.68,2.72-.1,4.72-.72,6.78-3.29l3.67,4.58Z"/>
  <path d="m352.17,41.03V6.67h20.95v5.68h-14.89v8.59h13.65v5.58h-13.65v8.78h15.27v5.73h-21.33Z"/>
</svg>