<?xml version="1.0" encoding="UTF-8"?>
<svg id="uuid-87899156-8a45-4883-bf85-208796aa52bc" data-name="图层 1" xmlns="http://www.w3.org/2000/svg" viewBox="0 0 381.03 138.95">
  <path d="m46.23,49.28c0,1.02,0,1.91-.13,2.92h17.4v12.7h-18.42c-.63,3.94-1.4,7.62-2.29,11.18h6.35c6.1,12.45,11.3,26.55,16,39.5h-14.23c-3.56-9.4-7.37-19.69-11.43-29.72-5.46,13.34-14.48,24.89-27.82,36.96l-5.84-16.26c12.96-12.32,20.96-22.74,23.88-41.66H7.37l-1.27-12.7h24.89c.13-1.02.13-1.91.13-2.92l.51-19.43h-5.59c-1.65,5.21-3.68,10.42-5.97,15.24H5.72c5.46-12.07,9.65-25.78,12.19-38.74h14.35c-.76,3.56-1.65,7.11-2.54,10.8h32.39v12.7h-15.5l-.38,19.43Zm21.72,58.68V27.05c0-6.1,4.06-10.16,10.16-10.16h28.71c6.1,0,10.16,4.06,10.16,10.16v80.91c0,6.1-4.06,10.16-10.16,10.16h-28.71c-6.1,0-10.16-4.06-10.16-10.16Zm34.04-4.95V32c0-1.14-.76-1.91-1.91-1.91h-15.24c-1.14,0-1.91.76-1.91,1.91v71c0,1.14.63,1.91,1.91,1.91h15.24c1.14,0,1.91-.76,1.91-1.91Z" opacity=".99"/>
  <path d="m232.69,57.53c.63,4.83.63,5.46,0,10.16-.76,5.33-4.45,9.27-10.03,9.78-5.97.51-12.45.25-18.29-1.14l-2.79-10.54c4.45,1.27,8.89,1.65,13.08,1.4,1.65-.13,2.79-1.27,3.05-2.92.13-.51.13-2.67,0-3.3-.25-1.27-.64-1.91-1.91-1.91h-54.24c-1.27,0-1.91.63-1.91,1.91v15.62c0,1.27.64,1.9,1.91,1.9h70.24c6.86,0,9.27,3.3,10.16,10.16.63,4.83.63,14.35,0,19.69-.76,6.48-5.72,11.69-12.32,11.81-14.73.25-25.4-.76-31.88-2.54l-3.3-11.3h-59.57l-1.02-11.69h84.08v11.69h-22.74c5.71,1.4,23.24,2.54,27.18,2.29,2.29-.13,3.94-1.78,4.19-3.94s.25-10.54,0-12.32c-.13-1.27-.63-1.91-1.91-1.91h-69.6c-6.86,0-10.16-3.3-10.16-10.16v-22.74c0-6.86,3.3-10.16,10.16-10.16h8.51l2.92-9.53h16.13l-2.79,9.53h29.85c-1.65-.63-3.18-1.27-4.95-2.03-7.24-3.3-14.23-8.13-20.83-13.97l-48.77,3.05-1.14-11.18,39.63-2.41c-3.94-4.57-7.62-9.4-11.05-14.48h15.88c3.3,4.95,7.24,9.4,11.56,13.46l18.67-1.14-8.76-10.67h14.23l8,9.78,21.34-1.27v11.18l-39.88,2.41c3.81,2.41,7.75,4.45,11.68,6.1,2.92,1.27,6.86,1.91,10.42,1.91,3.94,0,12.07-.63,22.1-3.3l-1.78,12.96c-4.7,1.4-10.54,2.29-15.75,2.67,1.27,1.65,2.03,4.06,2.41,7.11Zm-34.93,19.18l-30.74-5.08v-10.92l30.74,5.08v10.92Z" opacity=".99"/>
  <path d="m361.6,46.99v15.11c0,6.86-3.3,10.16-10.16,10.16h-68.21c-6.86,0-10.16-3.3-10.16-10.16v-15.11c0-2.79.64-5.08,1.78-6.73h-11.81v-14.73c0-6.1,4.06-10.16,10.16-10.16h36.71V6.35h15.24v9.02h36.96c6.1,0,10.16,4.06,10.16,10.16v14.73h-12.45c1.27,1.65,1.78,3.94,1.78,6.73Zm6.1,42.42v18.29c0,6.86-3.3,10.16-10.16,10.16h-79.76c-6.86,0-10.16-3.3-10.16-10.16v-18.29c0-6.86,3.3-10.16,10.16-10.16h79.76c6.86,0,10.16,3.3,10.16,10.16Zm-10.67-59.44c0-1.14-.76-1.91-1.91-1.91h-74.94c-1.14,0-1.91.76-1.91,1.91v7.62c1.4-.51,3.05-.76,4.95-.76h68.21c2.29,0,4.06.38,5.59,1.02v-7.88Zm-74.18,63.89v9.53c0,1.27.64,1.91,1.91,1.91h65.79c1.27,0,1.91-.64,1.91-1.91v-9.53c0-1.27-.63-1.91-1.91-1.91h-65.79c-1.27,0-1.91.63-1.91,1.91Zm5.46-42.93v7.24c0,1.14.63,1.91,1.91,1.91h54.24c1.27,0,1.9-.76,1.9-1.91v-7.24c0-1.27-.63-1.91-1.9-1.91h-54.24c-1.27,0-1.91.64-1.91,1.91Z" opacity=".99"/>
</svg>