<svg xmlns="http://www.w3.org/2000/svg" xmlns:xlink="http://www.w3.org/1999/xlink" viewBox="0 0 20 20">
  <g fill="none"><path d="M3.5 2a.5.5 0 0 0-.5.5v15a.5.5 0 0 0 1 0v-15a.5.5 0 0 0-.5-.5zM7 11a2 2 0 0 0-2 2v1a2 2 0 0 0 2 2h5a2 2 0 0 0 2-2v-1a2 2 0 0 0-2-2H7zm-1 2a1 1 0 0 1 1-1h5a1 1 0 0 1 1 1v1a1 1 0 0 1-1 1H7a1 1 0 0 1-1-1v-1zM5 6a2 2 0 0 1 2-2h8a2 2 0 0 1 2 2v1a2 2 0 0 1-2 2H7a2 2 0 0 1-2-2V6zm2-1a1 1 0 0 0-1 1v1a1 1 0 0 0 1 1h8a1 1 0 0 0 1-1V6a1 1 0 0 0-1-1H7z" fill="currentColor" /></g>
</svg>
