<svg xmlns="http://www.w3.org/2000/svg" xmlns:xlink="http://www.w3.org/1999/xlink" viewBox="0 0 20 20">
  <g fill="none">
    <path d="M2.5 3a.5.5 0 0 0 0 1h15a.5.5 0 0 0 0-1h-15z" fill="currentColor" />
    <path d="M2.5 16a.5.5 0 0 0 0 1h15a.5.5 0 0 0 0-1h-15z" fill="currentColor" />
    <path d="M4 13a2 2 0 0 0 2 2h1a2 2 0 0 0 2-2V7a2 2 0 0 0-2-2H6a2 2 0 0 0-2 2v6zm2 1a1 1 0 0 1-1-1V7a1 1 0 0 1 1-1h1a1 1 0 0 1 1 1v6a1 1 0 0 1-1 1H6z" fill="currentColor" />
    <path d="M13 15h1a2 2 0 0 0 2-2V7a2 2 0 0 0-2-2h-1a2 2 0 0 0-2 2v6a2 2 0 0 0 2 2zm-1-2V7a1 1 0 0 1 1-1h1a1 1 0 0 1 1 1v6a1 1 0 0 1-1 1h-1a1 1 0 0 1-1-1z" fill="currentColor" />
  </g>
</svg>
