<svg xmlns="http://www.w3.org/2000/svg" xmlns:xlink="http://www.w3.org/1999/xlink" viewBox="0 0 20 20">
  <g fill="none">
    <path d="M4 3a2 2 0 0 1 2-2h8a2 2 0 0 1 2 2v1a2 2 0 0 1-2 2H6a2 2 0 0 1-2-2V3zm2-1a1 1 0 0 0-1 1v1a1 1 0 0 0 1 1h8a1 1 0 0 0 1-1V3a1 1 0 0 0-1-1H6z" fill="currentColor" />
    <path d="M4 15a2 2 0 0 1 2-2h8a2 2 0 0 1 2 2v1a2 2 0 0 1-2 2H6a2 2 0 0 1-2-2v-1zm2-1a1 1 0 0 0-1 1v1a1 1 0 0 0 1 1h8a1 1 0 0 0 1-1v-1a1 1 0 0 0-1-1H6z" fill="currentColor" />
    <path d="M6 7a2 2 0 0 0-2 2v1a2 2 0 0 0 2 2h8a2 2 0 0 0 2-2V9a2 2 0 0 0-2-2H6zM5 9a1 1 0 0 1 1-1h8a1 1 0 0 1 1 1v1a1 1 0 0 1-1 1H6a1 1 0 0 1-1-1V9z" fill="currentColor" />
  </g>
</svg>
