<svg xmlns="http://www.w3.org/2000/svg" xmlns:xlink="http://www.w3.org/1999/xlink" viewBox="0 0 20 20">
  <g fill="none"><path d="M9.75 1.5a.75.75 0 0 1 .75.75v2.69l.72-.72a.75.75 0 1 1 1.06 1.06l-2 2a.75.75 0 0 1-1.06 0l-2-2a.75.75 0 0 1 1.06-1.06l.72.72V2.25a.75.75 0 0 1 .75-.75zM3.5 9.75A.75.75 0 0 1 4.25 9h11a.75.75 0 0 1 0 1.5h-11a.75.75 0 0 1-.75-.75zm8.78 4.47l-2-2a.75.75 0 0 0-1.06 0l-2 2a.75.75 0 1 0 1.06 1.06l.72-.72v2.69a.75.75 0 0 0 1.5 0v-2.69l.72.72a.75.75 0 1 0 1.06-1.06z" fill="currentColor" /></g>
</svg>
