<svg xmlns="http://www.w3.org/2000/svg" xmlns:xlink="http://www.w3.org/1999/xlink" viewBox="0 0 20 20">
  <g fill="none"><path d="M6 5.25a1.25 1.25 0 1 0 0-2.5a1.25 1.25 0 0 0 0 2.5zm0 4a1.25 1.25 0 1 0 0-2.5a1.25 1.25 0 0 0 0 2.5zM7.25 12a1.25 1.25 0 1 1-2.5 0a1.25 1.25 0 0 1 2.5 0zM10 5.25a1.25 1.25 0 1 0 0-2.5a1.25 1.25 0 0 0 0 2.5zM11.25 8a1.25 1.25 0 1 1-2.5 0a1.25 1.25 0 0 1 2.5 0zM10 13.25a1.25 1.25 0 1 0 0-2.5a1.25 1.25 0 0 0 0 2.5zM11.25 16a1.25 1.25 0 1 1-2.5 0a1.25 1.25 0 0 1 2.5 0zM14 5.25a1.25 1.25 0 1 0 0-2.5a1.25 1.25 0 0 0 0 2.5zM15.25 8a1.25 1.25 0 1 1-2.5 0a1.25 1.25 0 0 1 2.5 0zM14 13.25a1.25 1.25 0 1 0 0-2.5a1.25 1.25 0 0 0 0 2.5z" fill="currentColor" /></g>
</svg>
