<svg xmlns="http://www.w3.org/2000/svg" xmlns:xlink="http://www.w3.org/1999/xlink" viewBox="0 0 48 48">
  <g fill="none"><path d="M16 8.5a2.5 2.5 0 1 1-5 0a2.5 2.5 0 0 1 5 0zm0 10a2.5 2.5 0 1 1-5 0a2.5 2.5 0 0 1 5 0zm0 10a2.5 2.5 0 1 1-5 0a2.5 2.5 0 0 1 5 0zm10.5-20a2.5 2.5 0 1 1-5 0a2.5 2.5 0 0 1 5 0zm0 10a2.5 2.5 0 1 1-5 0a2.5 2.5 0 0 1 5 0zm0 10a2.5 2.5 0 1 1-5 0a2.5 2.5 0 0 1 5 0zm0 10a2.5 2.5 0 1 1-5 0a2.5 2.5 0 0 1 5 0zM37 8.5a2.5 2.5 0 1 1-5 0a2.5 2.5 0 0 1 5 0zm0 10a2.5 2.5 0 1 1-5 0a2.5 2.5 0 0 1 5 0zm0 10a2.5 2.5 0 1 1-5 0a2.5 2.5 0 0 1 5 0z" fill="currentColor" /></g>
</svg>
