<svg xmlns="http://www.w3.org/2000/svg" xmlns:xlink="http://www.w3.org/1999/xlink" viewBox="0 0 32 32">
  <g fill="none"><path d="M9 7.5a2.5 2.5 0 1 0 0-5a2.5 2.5 0 0 0 0 5zm0 7a2.5 2.5 0 1 0 0-5a2.5 2.5 0 0 0 0 5zm0 7a2.5 2.5 0 1 0 0-5a2.5 2.5 0 0 0 0 5zm7-14a2.5 2.5 0 1 0 0-5a2.5 2.5 0 0 0 0 5zm0 7a2.5 2.5 0 1 0 0-5a2.5 2.5 0 0 0 0 5zm0 7a2.5 2.5 0 1 0 0-5a2.5 2.5 0 0 0 0 5zm0 7a2.5 2.5 0 1 0 0-5a2.5 2.5 0 0 0 0 5zm7-21a2.5 2.5 0 1 0 0-5a2.5 2.5 0 0 0 0 5zm0 7a2.5 2.5 0 1 0 0-5a2.5 2.5 0 0 0 0 5zm0 7a2.5 2.5 0 1 0 0-5a2.5 2.5 0 0 0 0 5z" fill="currentColor" /></g>
</svg>
