<svg xmlns="http://www.w3.org/2000/svg" xmlns:xlink="http://www.w3.org/1999/xlink" viewBox="0 0 28 28">
  <g fill="none"><path d="M7.5 6.5a2 2 0 1 0 0-4a2 2 0 0 0 0 4zm0 6a2 2 0 1 0 0-4a2 2 0 0 0 0 4zm0 6a2 2 0 1 0 0-4a2 2 0 0 0 0 4zm6.5-12a2 2 0 1 0 0-4a2 2 0 0 0 0 4zm0 6a2 2 0 1 0 0-4a2 2 0 0 0 0 4zm0 6a2 2 0 1 0 0-4a2 2 0 0 0 0 4zm0 6a2 2 0 1 0 0-4a2 2 0 0 0 0 4zm6.5-18a2 2 0 1 0 0-4a2 2 0 0 0 0 4zm0 6a2 2 0 1 0 0-4a2 2 0 0 0 0 4zm0 6a2 2 0 1 0 0-4a2 2 0 0 0 0 4z" fill="currentColor" /></g>
</svg>
