<svg xmlns="http://www.w3.org/2000/svg" xmlns:xlink="http://www.w3.org/1999/xlink" viewBox="0 0 24 24">
  <g fill="none"><path d="M12 17.75a1.5 1.5 0 1 1 0 3a1.5 1.5 0 0 1 0-3zm0-5a1.5 1.5 0 1 1 0 3a1.5 1.5 0 0 1 0-3zm4.996 0a1.5 1.5 0 1 1 0 3a1.5 1.5 0 0 1 0-3zm-9.992 0a1.5 1.5 0 1 1 0 3a1.5 1.5 0 0 1 0-3zm4.996-5a1.5 1.5 0 1 1 0 3a1.5 1.5 0 0 1 0-3zm4.996 0a1.5 1.5 0 1 1 0 3a1.5 1.5 0 0 1 0-3zm-9.992 0a1.5 1.5 0 1 1 0 3a1.5 1.5 0 0 1 0-3zm4.996-5a1.5 1.5 0 1 1 0 3a1.5 1.5 0 0 1 0-3zm4.996 0a1.5 1.5 0 1 1 0 3a1.5 1.5 0 0 1 0-3zm-9.992 0a1.5 1.5 0 1 1 0 3a1.5 1.5 0 0 1 0-3z" fill="currentColor" /></g>
</svg>
