<svg xmlns="http://www.w3.org/2000/svg" xmlns:xlink="http://www.w3.org/1999/xlink" viewBox="0 0 48 48">
  <g fill="none"><path d="M13.5 11.5a3 3 0 1 0 0-6a3 3 0 0 0 0 6zm0 10a3 3 0 1 0 0-6a3 3 0 0 0 0 6zm0 10a3 3 0 1 0 0-6a3 3 0 0 0 0 6zm10.5-20a3 3 0 1 0 0-6a3 3 0 0 0 0 6zm0 10a3 3 0 1 0 0-6a3 3 0 0 0 0 6zm0 10a3 3 0 1 0 0-6a3 3 0 0 0 0 6zm0 10a3 3 0 1 0 0-6a3 3 0 0 0 0 6zm10.5-30a3 3 0 1 0 0-6a3 3 0 0 0 0 6zm0 10a3 3 0 1 0 0-6a3 3 0 0 0 0 6zm0 10a3 3 0 1 0 0-6a3 3 0 0 0 0 6z" fill="currentColor" /></g>
</svg>
