<svg xmlns="http://www.w3.org/2000/svg" xmlns:xlink="http://www.w3.org/1999/xlink" viewBox="0 0 24 24">
  <g fill="none">
    <path d="M12 2v6a2 2 0 0 0 2 2h6v10a2 2 0 0 1-2 2h-6.81A6.5 6.5 0 0 0 4 11.498V4a2 2 0 0 1 2-2h6z" fill="currentColor" />
    <path d="M13.5 2.5V8a.5.5 0 0 0 .5.5h5.5l-6-6z" fill="currentColor" />
    <path d="M12 17.5a5.5 5.5 0 1 1-11 0a5.5 5.5 0 0 1 11 0zm-2.146-2.354a.5.5 0 0 0-.708 0L5.5 18.793l-1.646-1.647a.5.5 0 0 0-.708.708l2 2a.5.5 0 0 0 .708 0l4-4a.5.5 0 0 0 0-.708z" fill="currentColor" />
  </g>
</svg>
