<svg xmlns="http://www.w3.org/2000/svg" xmlns:xlink="http://www.w3.org/1999/xlink" viewBox="0 0 20 20">
  <g fill="none"><path d="M3 2a1 1 0 0 0-1 1v2a1 1 0 0 0 1 1h5a1 1 0 0 0 1-1V3a1 1 0 0 0-1-1H3zm0 6a1 1 0 0 0-1 1v2a1 1 0 0 0 1 1h5a1 1 0 0 0 1-1V9a1 1 0 0 0-1-1H3zm0 6a1 1 0 0 0-1 1v2a1 1 0 0 0 1 1h5a1 1 0 0 0 1-1v-2a1 1 0 0 0-1-1H3zm9-12a1 1 0 0 0-1 1v2a1 1 0 0 0 1 1h5a1 1 0 0 0 1-1V3a1 1 0 0 0-1-1h-5zm0 6a1 1 0 0 0-1 1v2a1 1 0 0 0 1 1h5a1 1 0 0 0 1-1V9a1 1 0 0 0-1-1h-5z" fill="currentColor" /></g>
</svg>
