<svg xmlns="http://www.w3.org/2000/svg" xmlns:xlink="http://www.w3.org/1999/xlink" viewBox="0 0 20 20">
  <g fill="none"><path d="M6 3a1 1 0 0 0-1 1v2a1 1 0 0 0 1 1h8a1 1 0 0 0 1-1V4a1 1 0 0 0-1-1H6zM4 4a2 2 0 0 1 2-2h8a2 2 0 0 1 2 2v2a2 2 0 0 1-2 2H6a2 2 0 0 1-2-2V4zm2 13a1 1 0 0 1-1-1v-2a1 1 0 0 1 1-1h8a1 1 0 0 1 1 1v2a1 1 0 0 1-1 1H6zm-2-1a2 2 0 0 0 2 2h8a2 2 0 0 0 2-2v-2a2 2 0 0 0-2-2H6a2 2 0 0 0-2 2v2zm-2-6a.5.5 0 0 1 .5-.5h15a.5.5 0 0 1 0 1h-15A.5.5 0 0 1 2 10z" fill="currentColor" /></g>
</svg>
