<svg xmlns="http://www.w3.org/2000/svg" xmlns:xlink="http://www.w3.org/1999/xlink" viewBox="0 0 20 20">
  <g fill="none"><path d="M16.78 4.28a.75.75 0 0 0-1.06-1.06l-.5.5a.75.75 0 0 0 1.06 1.06l.5-.5zm-3 1.94a.75.75 0 0 1 0 1.06l-.5.5a.75.75 0 1 1-1.06-1.06l.5-.5a.75.75 0 0 1 1.06 0zm-3 3a.75.75 0 0 1 0 1.06l-.5.5a.75.75 0 1 1-1.06-1.06l.5-.5a.75.75 0 0 1 1.06 0zm-3 3a.75.75 0 0 1 0 1.06l-.5.5a.75.75 0 0 1-1.06-1.06l.5-.5a.75.75 0 0 1 1.06 0zm-3 4.06a.75.75 0 1 0-1.06-1.06l-.5.5a.75.75 0 1 0 1.06 1.06l.5-.5z" fill="currentColor" /></g>
</svg>
