<svg xmlns="http://www.w3.org/2000/svg" xmlns:xlink="http://www.w3.org/1999/xlink" viewBox="0 0 24 24">
  <g fill="none"><path d="M21.707 2.297a1 1 0 0 1 0 1.414l-.5.5a1 1 0 1 1-1.414-1.414l.5-.5a1 1 0 0 1 1.414 0zm-4.004 4a1 1 0 0 1 0 1.414l-.997.997a1 1 0 1 1-1.414-1.414l.997-.997a1 1 0 0 1 1.414 0zm-4.496 4.496a1 1 0 0 1 0 1.414l-1 1a1 1 0 0 1-1.414-1.414l1-1a1 1 0 0 1 1.414 0zM8.703 16.71a1 1 0 1 0-1.414-1.414l-.998.997a1 1 0 1 0 1.414 1.415l.998-.998zm-4.491 4.496a1 1 0 0 0-1.414-1.414l-.5.5a1 1 0 0 0 1.414 1.414l.5-.5z" fill="currentColor" /></g>
</svg>
