<svg xmlns="http://www.w3.org/2000/svg" xmlns:xlink="http://www.w3.org/1999/xlink" viewBox="0 0 24 24">
  <g fill="none"><path d="M21.785 2.223a.75.75 0 0 1 0 1.06l-1 1.001a.75.75 0 1 1-1.061-1.06l1-1.001a.75.75 0 0 1 1.061 0zm-4.008 4a.75.75 0 0 1 0 1.06l-1.5 1.5a.75.75 0 0 1-1.06-1.06l1.5-1.5a.75.75 0 0 1 1.06 0zM13.28 10.72a.75.75 0 0 1 0 1.06l-1.5 1.5a.75.75 0 1 1-1.06-1.06l1.5-1.5a.75.75 0 0 1 1.06 0zm-4.503 5.563a.75.75 0 0 0-1.06-1.06l-1.5 1.5a.75.75 0 0 0 1.06 1.06l1.5-1.5zM4.281 20.78a.75.75 0 1 0-1.06-1.06l-1.001 1a.75.75 0 1 0 1.06 1.061l1.001-1z" fill="currentColor" /></g>
</svg>
