<svg xmlns="http://www.w3.org/2000/svg" xmlns:xlink="http://www.w3.org/1999/xlink" viewBox="0 0 48 48">
  <g fill="none"><path d="M43.56 6.56a1.5 1.5 0 0 0-2.12-2.12l-2 2a1.5 1.5 0 0 0 2.12 2.12l2-2zm-8 5.88a1.5 1.5 0 0 1 0 2.12l-3 3a1.5 1.5 0 0 1-2.12-2.12l3-3a1.5 1.5 0 0 1 2.12 0zm-9 11.12a1.5 1.5 0 0 0-2.12-2.12l-3 3a1.5 1.5 0 0 0 2.12 2.12l3-3zm-9 6.88a1.5 1.5 0 0 1 0 2.12l-3 3a1.5 1.5 0 0 1-2.12-2.12l3-3a1.5 1.5 0 0 1 2.12 0zm-9 9a1.5 1.5 0 0 1 0 2.12l-2 2a1.5 1.5 0 0 1-2.12-2.12l2-2a1.5 1.5 0 0 1 2.12 0z" fill="currentColor" /></g>
</svg>
