<svg xmlns="http://www.w3.org/2000/svg" xmlns:xlink="http://www.w3.org/1999/xlink" viewBox="0 0 28 28">
  <g fill="none"><path d="M3 6.75A3.75 3.75 0 0 1 6.75 3h14.5A3.75 3.75 0 0 1 25 6.75v14.5A3.75 3.75 0 0 1 21.25 25H6.75A3.75 3.75 0 0 1 3 21.25V6.75zM6.75 23.5H9.5v-14h14V6.75a2.25 2.25 0 0 0-2.25-2.25H6.75A2.25 2.25 0 0 0 4.5 6.75v14.5a2.25 2.25 0 0 0 2.25 2.25zM17 17v-6h-6v6h6zm6.5-6h-5v6h5v-6zM11 18.5v5h6v-5h-6zm7.5 5h2.75a2.25 2.25 0 0 0 2.25-2.25V18.5h-5v5z" fill="currentColor" /></g>
</svg>
