<svg xmlns="http://www.w3.org/2000/svg" xmlns:xlink="http://www.w3.org/1999/xlink" viewBox="0 0 20 20">
  <g fill="none"><path d="M2.5 5a.5.5 0 0 0 0 1h15a.5.5 0 0 0 0-1h-15zm0 3a.5.5 0 0 0 0 1h15a.5.5 0 0 0 0-1h-15zM9 14.5c0-.168.008-.335.022-.5H2.5a.5.5 0 0 0 0 1h6.522A5.571 5.571 0 0 1 9 14.5zm.6-2.5c.183-.358.404-.693.657-1H2.5a.5.5 0 0 0 0 1h7.1zm9.4 2.5a4.5 4.5 0 1 1-9 0a4.5 4.5 0 0 1 9 0zM14.5 12a.5.5 0 0 0-.5.5v2a.5.5 0 0 0 1 0v-2a.5.5 0 0 0-.5-.5zm0 5.125a.625.625 0 1 0 0-1.25a.625.625 0 0 0 0 1.25z" fill="currentColor" /></g>
</svg>
