<svg xmlns="http://www.w3.org/2000/svg" xmlns:xlink="http://www.w3.org/1999/xlink" viewBox="0 0 24 24">
  <g fill="none"><path d="M3.75 5a.75.75 0 0 0 0 1.5h16.5a.75.75 0 0 0 0-1.5H3.75zm5 4a.75.75 0 0 0 0 1.5h11.5a.75.75 0 0 0 0-1.5H8.75zM8 13.75a.75.75 0 0 1 .75-.75h11.5a.75.75 0 0 1 0 1.5H8.75a.75.75 0 0 1-.75-.75zM3.75 17a.75.75 0 0 0 0 1.5h16.5a.75.75 0 0 0 0-1.5H3.75zm-.53-5.97a.75.75 0 1 1 1.06-1.06l1.5 1.5a.75.75 0 0 1 0 1.06l-1.5 1.5a.75.75 0 0 1-1.06-1.06l.97-.97l-.97-.97z" fill="currentColor" /></g>
</svg>
