<svg xmlns="http://www.w3.org/2000/svg" xmlns:xlink="http://www.w3.org/1999/xlink" viewBox="0 0 16 16">
  <g fill="none"><path d="M5.704 1.74a.75.75 0 0 0-1.408 0l-3.5 9.5a.75.75 0 0 0 1.408.52l.924-2.51h2.015a5.465 5.465 0 0 1 .593-1.5H3.68l1.32-3.58l1.11 3.015a5.532 5.532 0 0 1 1.175-1.149L5.704 1.741zM10.5 7.876a.625.625 0 1 0 0 1.25a.625.625 0 0 0 0-1.25zm0 5.125a.5.5 0 0 0 .5-.5v-2a.5.5 0 0 0-1 0v2a.5.5 0 0 0 .5.5zm0-7a4.5 4.5 0 1 0 0 9a4.5 4.5 0 0 0 0-9zm0 8a3.5 3.5 0 1 1 0-7a3.5 3.5 0 0 1 0 7z" fill="currentColor" /></g>
</svg>
