<svg xmlns="http://www.w3.org/2000/svg" xmlns:xlink="http://www.w3.org/1999/xlink" viewBox="0 0 16 16">
  <g fill="none"><path d="M4 3.75A.75.75 0 0 1 4.75 3h5.5a.75.75 0 0 1 0 1.5h-5.5A.75.75 0 0 1 4 3.75zm10.78 1.97a.75.75 0 0 1 0 1.06l-.97.97l.97.97a.75.75 0 0 1-1.06 1.06l-1.5-1.5a.75.75 0 0 1 0-1.06l1.5-1.5a.75.75 0 0 1 1.06 0zM1 7.75A.75.75 0 0 1 1.75 7h8.5a.75.75 0 0 1 0 1.5h-8.5A.75.75 0 0 1 1 7.75zm5 4a.75.75 0 0 1 .75-.75h3.5a.75.75 0 0 1 0 1.5h-3.5a.75.75 0 0 1-.75-.75z" fill="currentColor" /></g>
</svg>
